<svg width="80" height="80" viewBox="0 0 80 80" fill="none" xmlns="http://www.w3.org/2000/svg">
<path opacity="0.3" d="M80 40C80 62.0914 62.0914 80 40 80C17.9086 80 0 62.0914 0 40C0 17.9086 17.9086 0 40 0C62.0914 0 80 17.9086 80 40ZM10.9071 40C10.9071 56.0675 23.9325 69.0929 40 69.0929C56.0675 69.0929 69.0929 56.0675 69.0929 40C69.0929 23.9325 56.0675 10.9071 40 10.9071C23.9325 10.9071 10.9071 23.9325 10.9071 40Z" fill="#2F2E30"/>
<circle cx="40" cy="40" r="29" fill="black"/>
<path d="M31.6665 31.6667V28.3333C31.6665 27.3681 31.9459 26.4236 32.4709 25.6136C32.996 24.8037 33.7442 24.1631 34.6253 23.7691C35.5064 23.375 36.4827 23.2444 37.4364 23.3931C38.3901 23.5417 39.2804 23.9632 39.9998 24.6067C40.7193 23.9632 41.6095 23.5417 42.5632 23.3931C43.5169 23.2444 44.4933 23.375 45.3744 23.7691C46.2555 24.1631 47.0037 24.8037 47.5287 25.6136C48.0538 26.4236 48.3331 27.3681 48.3332 28.3333V31.6667H50.8332C51.4962 31.6667 52.1321 31.9301 52.6009 32.3989C53.0698 32.8677 53.3332 33.5036 53.3332 34.1667V50.8417C53.3332 52.3865 52.7195 53.8682 51.6271 54.9606C50.5347 56.053 49.0531 56.6667 47.5082 56.6667H33.3332C31.5651 56.6667 29.8694 55.9643 28.6191 54.714C27.3689 53.4638 26.6665 51.7681 26.6665 50V34.1667C26.6665 33.5036 26.9299 32.8677 27.3987 32.3989C27.8676 31.9301 28.5035 31.6667 29.1665 31.6667H31.6665ZM42.7248 54.1667C42.0449 53.1913 41.6813 52.0306 41.6832 50.8417V34.1667H29.1665V50C29.1665 50.5472 29.2743 51.089 29.4837 51.5945C29.6931 52.1 30 52.5594 30.3869 52.9463C30.7738 53.3332 31.2331 53.6401 31.7387 53.8495C32.2442 54.0589 32.786 54.1667 33.3332 54.1667H42.7248ZM39.1665 31.6667V28.3333C39.1665 27.6703 38.9031 27.0344 38.4343 26.5656C37.9654 26.0967 37.3295 25.8333 36.6665 25.8333C36.0035 25.8333 35.3676 26.0967 34.8987 26.5656C34.4299 27.0344 34.1665 27.6703 34.1665 28.3333V31.6667H39.1665ZM41.6665 31.6667H45.8332V28.3333C45.8332 27.8187 45.6745 27.3166 45.3786 26.8956C45.0827 26.4746 44.664 26.1551 44.1798 25.9808C43.6956 25.8065 43.1695 25.7859 42.6731 25.9218C42.1768 26.0577 41.7344 26.3434 41.4065 26.74C41.5748 27.24 41.6665 27.7767 41.6665 28.3333V31.6667ZM44.1832 50.8417C44.1832 51.7235 44.5335 52.5692 45.157 53.1928C45.7806 53.8163 46.6263 54.1667 47.5082 54.1667C48.39 54.1667 49.2357 53.8163 49.8593 53.1928C50.4829 52.5692 50.8332 51.7235 50.8332 50.8417V34.1667H44.1832V50.8417Z" fill="white"/>
</svg>
